<?xml version="1.0" standalone="no"?>
<!DOCTYPE svg PUBLIC "-//W3C//DTD SVG 20010904//EN"
 "http://www.w3.org/TR/2001/REC-SVG-20010904/DTD/svg10.dtd">
<svg version="1.0" xmlns="http://www.w3.org/2000/svg"
 width="200.000000pt" height="200.000000pt" viewBox="0 0 200.000000 200.000000"
 preserveAspectRatio="xMidYMid meet">
<metadata>
Created by potrace 1.11, written by Peter Selinger 2001-2013
</metadata>
<g transform="translate(0.000000,200.000000) scale(0.100000,-0.100000)"
fill="#000000" stroke="none">
<path d="M305 1986 c-119 -38 -208 -114 -262 -224 l-38 -76 0 -685 0 -686 32
-67 c53 -113 133 -184 255 -229 50 -18 83 -19 723 -16 l671 2 76 38 c91 45
157 112 202 207 l31 65 0 685 0 685 -32 67 c-44 94 -109 160 -202 206 l-75 37
-670 2 c-521 1 -680 -1 -711 -11z m1376 -50 c130 -39 215 -125 255 -256 11
-37 13 -167 11 -700 l-2 -655 -27 -57 c-30 -65 -106 -147 -164 -176 -82 -42
-119 -44 -784 -40 -460 3 -645 7 -670 16 -49 16 -139 75 -120 78 8 2 274 5
590 8 316 2 591 7 610 11 132 24 249 100 314 203 71 113 94 279 55 395 -11 34
-27 69 -35 78 -8 8 -14 20 -14 25 0 26 -100 109 -169 141 l-74 35 32 15 c47
23 124 106 155 166 33 66 38 85 41 169 7 190 -134 363 -330 407 -91 20 -186
24 -590 25 l-400 2 0 -773 0 -772 -104 -61 -104 -61 -21 23 c-30 34 -55 80
-71 135 -21 69 -22 1282 -1 1359 32 122 118 214 239 255 48 17 104 18 692 18
521 1 649 -2 686 -13z m-536 -399 c113 -6 169 -38 196 -112 8 -22 14 -51 13
-65 -1 -14 -2 -40 -3 -58 -1 -45 -71 -114 -131 -131 -29 -8 -130 -13 -278 -15
l-232 -3 -1 34 c0 18 0 101 0 183 0 83 0 154 0 159 1 5 9 11 18 13 20 4 307 0
418 -5z m122 -681 c72 -23 138 -88 149 -147 16 -84 0 -150 -49 -206 -56 -63
-71 -66 -379 -71 l-278 -4 0 153 c-1 85 -2 186 -3 226 l-2 72 255 -4 c197 -3
267 -7 307 -19z"/>
</g>
</svg>
